<?xml version="1.0" encoding="UTF-8"?>
<svg width="137px" height="136px" viewBox="0 0 137 136" version="1.1" xmlns="http://www.w3.org/2000/svg" xmlns:xlink="http://www.w3.org/1999/xlink">
    <!-- Generator: Sketch 51.3 (57544) - http://www.bohemiancoding.com/sketch -->
    <title>Group</title>
    <desc>Created with Sketch.</desc>
    <defs></defs>
    <g id="labels-and-icons" stroke="none" stroke-width="1" fill="none" fill-rule="evenodd">
        <g id="Desktop" transform="translate(-492.000000, -91.000000)">
            <g id="Group" transform="translate(492.000000, 87.000000)">
                <g id="Group-7" transform="translate(99.500000, 109.500000) rotate(-45.000000) translate(-99.500000, -109.500000) translate(93.000000, 103.000000)" fill="#642164">
                    <path d="M11.0439414,8.66666667 L1.95605859,8.66666667 C0.874167776,8.66666667 0,7.69705341 0,6.50239411 C0,5.3053407 0.874167776,4.33333333 1.95605859,4.33333333 L11.0439414,4.33333333 C12.1258322,4.33333333 13,5.3053407 13,6.50239411 C13,7.69705341 12.1258322,8.66666667 11.0439414,8.66666667" id="Fill-62"></path>
                    <path d="M6.49880228,13 C5.30348259,13 4.33333333,12.1239601 4.33333333,11.0424293 L4.33333333,1.95757072 C4.33333333,0.876039933 5.30348259,0 6.49880228,0 C7.69651741,0 8.66666667,0.876039933 8.66666667,1.95757072 L8.66666667,11.0424293 C8.66666667,12.1239601 7.69651741,13 6.49880228,13" id="Fill-64"></path>
                </g>
                <g id="Group-7" transform="translate(42.500000, 45.500000) rotate(-45.000000) translate(-42.500000, -45.500000) translate(36.000000, 39.000000)" fill="#642164">
                    <path d="M11.0439414,8.66666667 L1.95605859,8.66666667 C0.874167776,8.66666667 0,7.69705341 0,6.50239411 C0,5.3053407 0.874167776,4.33333333 1.95605859,4.33333333 L11.0439414,4.33333333 C12.1258322,4.33333333 13,5.3053407 13,6.50239411 C13,7.69705341 12.1258322,8.66666667 11.0439414,8.66666667" id="Fill-62"></path>
                    <path d="M6.49880228,13 C5.30348259,13 4.33333333,12.1239601 4.33333333,11.0424293 L4.33333333,1.95757072 C4.33333333,0.876039933 5.30348259,0 6.49880228,0 C7.69651741,0 8.66666667,0.876039933 8.66666667,1.95757072 L8.66666667,11.0424293 C8.66666667,12.1239601 7.69651741,13 6.49880228,13" id="Fill-64"></path>
                </g>
                <g id="Group-7" transform="translate(131.500000, 58.500000) rotate(-45.000000) translate(-131.500000, -58.500000) translate(125.000000, 52.000000)" fill="#642164">
                    <path d="M11.0439414,8.66666667 L1.95605859,8.66666667 C0.874167776,8.66666667 0,7.69705341 0,6.50239411 C0,5.3053407 0.874167776,4.33333333 1.95605859,4.33333333 L11.0439414,4.33333333 C12.1258322,4.33333333 13,5.3053407 13,6.50239411 C13,7.69705341 12.1258322,8.66666667 11.0439414,8.66666667" id="Fill-62"></path>
                    <path d="M6.49880228,13 C5.30348259,13 4.33333333,12.1239601 4.33333333,11.0424293 L4.33333333,1.95757072 C4.33333333,0.876039933 5.30348259,0 6.49880228,0 C7.69651741,0 8.66666667,0.876039933 8.66666667,1.95757072 L8.66666667,11.0424293 C8.66666667,12.1239601 7.69651741,13 6.49880228,13" id="Fill-64"></path>
                </g>
                <circle id="Oval" fill="#E99AE9" fill-rule="nonzero" cx="105" cy="78" r="2"></circle>
                <circle id="Oval" fill="#E99AE9" fill-rule="nonzero" cx="116" cy="25" r="2"></circle>
                <circle id="Oval" fill="#E99AE9" fill-rule="nonzero" cx="42" cy="74" r="2"></circle>
                <circle id="Oval" fill="#E99AE9" fill-rule="nonzero" cx="79" cy="98" r="2"></circle>
                <path d="M5.36559996,138.065443 L5.36204357,138.068887 C4.41802358,138.977038 2.90797108,138.977038 1.95697751,138.062091 C1.01434083,137.131406 1.01434083,135.627146 1.96045386,134.693051 L78.4962055,60.1028374 L80.8021986,61.1673833 L81.9112315,63.4491594 L5.36559996,138.065443 Z" id="Path" stroke="#163B66" stroke-width="1.5" fill="#4D5073" fill-rule="nonzero"></path>
                <circle id="Oval" fill="#E99AE9" fill-rule="nonzero" cx="68" cy="25" r="2"></circle>
                <path d="M89.5527389,69.8177462 C87.720189,71.7496527 84.5362321,71.2394584 83.3888385,68.8300485 L79.7807967,61.2535255 L72.1794921,57.6500121 C69.6209125,56.4370787 69.2305767,52.9317354 71.4587612,51.1776117 L77.1823342,46.6717662 C77.1887997,46.5695093 77.1990359,46.4648827 77.2135833,46.3562886 L78.3876598,37.3299589 C78.7330404,34.674664 81.610578,33.1906205 83.9501296,34.4612052 L91.351356,38.4807296 L99.6351663,36.9367915 C102.257053,36.4481238 104.548222,38.765001 104.053924,41.4051307 L103.839893,42.548307 C103.301627,45.4232784 103.273432,45.5738708 102.513446,49.6330644 L106.526447,56.9889438 C107.858223,59.430105 106.235171,62.4408376 103.477926,62.6438978 L95.8228708,63.2076623 L89.5527389,69.8177462 Z" id="Path" fill="#FDC260" fill-rule="nonzero"></path>
                <path d="M89.0119129,67.2959087 C88.0518147,68.4254245 86.2628706,68.152865 85.6699981,66.786742 L82.4216807,59.3000924 C82.1599014,59.1663588 81.7997985,58.9927708 81.3465179,58.7823765 C80.2015132,58.2509121 78.4922587,57.4982819 76.2247657,56.5274434 C74.9247461,55.9708336 74.584242,54.2565647 75.5697768,53.2299003 L81.0667436,47.5058053 C81.1158105,47.2177404 81.174414,46.8095784 81.2408779,46.2886182 C81.3974788,45.061142 81.5937433,43.2412836 81.828653,40.8358133 C81.9708999,39.3792074 83.5326842,38.5472856 84.7900926,39.2583314 L90.9859955,42.7621081 C91.1523646,42.7406636 91.3577552,42.7106704 91.5976265,42.6726636 C92.2649553,42.5669277 93.1528595,42.4072826 94.2940916,42.1907869 C94.4748725,42.1564435 94.4748725,42.1564435 94.6554383,42.1219661 C95.1887014,42.0200289 97.0915948,41.6507721 97.4476596,41.583112 L98.2839591,41.4241967 C99.6653557,41.161701 100.874975,42.3926894 100.616853,43.7983029 L100.442189,44.749442 C100.189255,46.1268038 99.7355108,48.3887763 99.0879758,51.5002086 C99.2297983,51.7623175 99.4288983,52.1116316 99.6828402,52.542883 C100.337162,53.6540704 101.338004,55.2800789 102.682023,57.4149293 C103.472644,58.6707575 102.710917,60.3367654 101.25762,60.5303053 L93.9336769,61.5056571 L89.0119129,67.2959087 Z" id="Path" fill="#FFD550" fill-rule="nonzero"></path>
                <g id="Group-7" transform="translate(95.500000, 9.500000) rotate(-45.000000) translate(-95.500000, -9.500000) translate(89.000000, 3.000000)" fill="#642164">
                    <path d="M11.0439414,8.66666667 L1.95605859,8.66666667 C0.874167776,8.66666667 0,7.69705341 0,6.50239411 C0,5.3053407 0.874167776,4.33333333 1.95605859,4.33333333 L11.0439414,4.33333333 C12.1258322,4.33333333 13,5.3053407 13,6.50239411 C13,7.69705341 12.1258322,8.66666667 11.0439414,8.66666667" id="Fill-62"></path>
                    <path d="M6.49880228,13 C5.30348259,13 4.33333333,12.1239601 4.33333333,11.0424293 L4.33333333,1.95757072 C4.33333333,0.876039933 5.30348259,0 6.49880228,0 C7.69651741,0 8.66666667,0.876039933 8.66666667,1.95757072 L8.66666667,11.0424293 C8.66666667,12.1239601 7.69651741,13 6.49880228,13" id="Fill-64"></path>
                </g>
                <path d="M4.55232944,129.386813 L4.88611629,137.52112 C4.9148551,138.221477 5.49098843,138.774454 6.19193575,138.774454 C6.22262833,138.77418 6.22262833,138.77418 6.25329144,138.772807 C6.88398251,138.738921 7.36778876,138.200175 7.33390295,137.569484 L6.8921741,129.347919 L5.37476434,129.37227 C5.3736692,129.372288 5.3736692,129.372288 5.37257407,129.372307 L4.55232944,129.386813 Z" id="Rectangle" stroke="#FFFFFF" fill="#FFFFFF" fill-rule="nonzero" transform="translate(5.933679, 134.055720) rotate(-310.000000) translate(-5.933679, -134.055720) "></path>
                <rect id="Rectangle" stroke="#FFFFFF" fill="#FFFFFF" fill-rule="nonzero" transform="translate(89.108657, 63.133338) rotate(-316.000000) translate(-89.108657, -63.133338) " x="88.6086565" y="61.633338" width="1" height="3" rx="0.5"></rect>
            </g>
        </g>
    </g>
</svg>